<?xml version="1.0" encoding="UTF-8" standalone="no"?>
<!-- Generator: Adobe Illustrator 26.3.1, SVG Export Plug-In . SVG Version: 6.00 Build 0)  -->

<svg
   xmlns:dc="http://purl.org/dc/elements/1.1/"
   xmlns:cc="http://creativecommons.org/ns#"
   xmlns:rdf="http://www.w3.org/1999/02/22-rdf-syntax-ns#"
   xmlns:svg="http://www.w3.org/2000/svg"
   xmlns="http://www.w3.org/2000/svg"
   xmlns:inkscape="http://www.inkscape.org/namespaces/inkscape"
   version="1.1"
   id="Layer_1"
   x="0px"
   y="0px"
   viewBox="0 0 400 300"
   xml:space="preserve"
   width="65"
   height="50">
<style
   type="text/css"
   id="style2">
	.st0{fill:#ffffff;}
	.st1{fill:#ffffff;}
</style>

<g
   id="g18"
   transform="translate(-149.53208,-57.896889)">
	<g
   id="g16">
		<path
   class="st0"
   d="m 276.6,338.6 c -0.3,-0.4 -0.9,-0.3 -1.1,0.2 -0.5,1.3 -1.5,3.5 -3.4,5.6 -1.9,2.1 -4.8,3.9 -6.3,4.7 -0.5,0.3 -0.4,0.9 0,1.1 2,0.9 6.4,2.2 10.3,-2.3 3.7,-4.1 1.7,-7.8 0.5,-9.3 z"
   id="path6"
   inkscape:connector-curvature="0"
   style="fill:#ffffff" />
		<path
   class="st0"
   d="m 169.8,172.1 c 0.5,0.1 0.9,-0.3 0.8,-0.8 -0.7,-2 -3,-6 -8.9,-5.7 -5.4,0.3 -6.6,4.3 -6.8,6.3 -0.1,0.5 0.4,0.8 0.9,0.6 1.2,-0.5 3.6,-1.4 6.3,-1.6 2.8,-0.1 6.1,0.7 7.7,1.2 z"
   id="path8"
   inkscape:connector-curvature="0"
   style="fill:#ffffff" />
		<g
   id="g14">
			<path
   class="st1"
   d="m 546,103.5 c -0.4,-0.6 -1.2,-0.7 -1.8,-0.3 v 0 0 c -2.3,1.7 -4.6,3.3 -6.9,5 -1.1,0.7 -21.3,13.9 -25.7,14 -2.2,0.1 -4.9,0.5 -3.9,-4.5 0,-0.1 0,-0.2 0.1,-0.3 0.6,-2.9 1.1,-5.7 1.5,-8.6 0.6,-4.3 1.1,-8.6 1.5,-12.8 0.2,-2.1 0.5,-4.3 0.7,-6.4 0.1,-1.1 0.3,-2.1 0.4,-3.1 0.1,-1 0.4,-2 0.6,-3 1,-4 2.4,-8 4,-12 1.6,-3.9 3.4,-7.8 5.3,-11.5 v 0 c 0.3,-0.6 0.2,-1.3 -0.3,-1.7 -0.6,-0.6 -1.5,-0.5 -2.1,0.1 -7.7,8.1 -14.9,16.8 -20.4,26.7 -1.4,2.5 -2.6,5 -3.7,7.7 -1.1,2.7 -1.9,5.4 -2.6,8.1 -1.4,5.4 -2.6,10.9 -3.5,16.4 -0.2,1.4 -0.4,2.8 -0.6,4.2 -0.1,0.7 -0.2,1.4 -0.3,2.1 l -0.2,2.1 c -0.2,2.8 -0.5,5.5 -1,8.1 v 0.1 c -2.2,3.6 -4.7,7.1 -7.6,10.2 -3.2,3.4 -6.9,6.2 -11,8.5 -4.1,2.3 -8.4,4.2 -12.8,6.2 l -3.3,1.5 -1.6,0.7 -1.6,0.6 c -2.2,0.8 -4.4,1.5 -6.7,2.1 -5,1.3 -10.1,2.3 -15.3,3.1 0,-0.1 0,-0.2 0.1,-0.3 0.2,-0.6 0.5,-1.2 0.9,-1.8 0.4,-0.6 0.8,-1.2 1.3,-1.8 0.9,-1.2 1.9,-2.4 3,-3.5 1,-1.1 2.1,-2.3 3.2,-3.3 v 0 c 0.4,-0.3 0.5,-0.9 0.3,-1.3 -0.2,-0.7 -1,-1 -1.6,-0.8 v 0 c -1.2,0.4 -2.3,0.8 -3.5,1.2 -1.1,0.5 -2.3,0.9 -3.4,1.4 -1.1,0.5 -2.3,1 -3.4,1.6 -1.1,0.5 -2.2,1.1 -3.3,1.7 -2.2,1.2 -4.3,2.6 -6.3,4.1 -1,0.8 -2,1.6 -2.9,2.4 -0.5,0.4 -0.9,0.9 -1.4,1.3 -0.2,0.2 -0.5,0.5 -0.7,0.7 -0.1,0.1 -0.1,0.2 -0.2,0.2 -3,0.2 -5.9,0.3 -8.9,0.2 -1.2,0 -2.3,-0.1 -3.4,-0.2 l -1.8,-0.2 c -0.6,-0.1 -1.2,-0.1 -1.8,-0.1 -2.4,-0.2 -4.8,-0.2 -7.2,-0.3 -9.6,-0.2 -19.2,-0.1 -28.7,0 -4.3,0.1 -8.6,0.2 -12.9,0.3 v 0 c 3.3,-3.6 6.9,-7.1 10.6,-10.3 1.9,-1.6 3.8,-3.1 5.8,-4.6 2,-1.4 4.1,-2.9 6.1,-4.1 l 0.1,-0.1 c 0.5,-0.3 0.8,-0.9 0.8,-1.5 -0.1,-0.9 -0.8,-1.5 -1.7,-1.5 v 0 c -2.4,0.1 -4.7,0.3 -7,0.7 -2.3,0.4 -4.6,0.8 -6.8,1.3 -4.5,1 -8.9,2.4 -13.2,4.1 -1.1,0.4 -2.1,0.9 -3.2,1.3 -1.1,0.5 -2.1,0.9 -3.2,1.5 -2.1,1 -4.1,2.1 -6.1,3.3 -1,0.6 -2,1.3 -2.9,2 -0.9,0.7 -1.9,1.4 -2.8,2.1 -0.8,0.6 -1.6,1.2 -2.3,1.8 0,0 -0.1,0 -0.1,0.1 -2.4,1.9 -6.4,5.5 -8.7,6 -2.3,0.6 -7.4,1 -11.8,1.3 -4.4,0.3 -7.3,-1.1 -6.4,-3.8 0.2,-0.5 0.4,-1.1 0.5,-1.8 0,0 3,-7.1 3.3,-11.9 0.3,-4.8 -4.7,-13.1 -6.2,-16.1 -0.1,-0.1 -0.1,-0.2 -0.2,-0.3 -0.7,-1.3 -1.4,-2.5 -2.2,-3.7 -1.2,-2.1 -2.4,-4.1 -3.5,-6.1 -0.5,-1 -1,-2.1 -1.5,-3.1 -0.5,-1.1 -0.9,-2 -1.3,-3.1 -1.5,-4.4 -2.7,-9 -3.8,-13.6 -1.1,-4.6 -2.2,-9.3 -3.2,-14 -1,-4.7 -2,-9.4 -2.9,-14 v -0.1 c -0.1,-0.5 -0.4,-1 -0.9,-1.4 -1,-0.6 -2.3,-0.4 -2.9,0.6 v 0 c -1.5,2.1 -2.8,4.4 -4,6.7 -1.2,2.3 -2.2,4.7 -3.1,7.1 -1.8,4.8 -3.1,9.8 -4.2,14.7 -2.1,10 -3.1,20.1 -3.3,30.2 -0.1,5.1 0,10.1 0.5,15.2 l 0.2,1.9 0.2,1.9 c 0.2,1.2 0.3,2.4 0.4,3.7 0.2,2.4 0.4,4.9 0.5,7.3 0.2,4.9 0.1,9.8 -0.6,14.4 -0.2,1.2 -0.4,2.3 -0.7,3.4 -0.3,1.1 -0.7,2.1 -1.1,2.9 -1,1.8 -2.4,3.3 -4.2,4.8 -1.8,1.4 -3.9,2.7 -6,4.1 l -6.3,4 c -4.2,2.7 -8.5,5.4 -12.6,8.3 -2.1,1.4 -4.1,2.8 -6.2,4.3 l -3.1,2.2 -1.5,1.1 c -0.5,0.4 -1,0.8 -1.6,1.2 -3.1,2.4 -6,5 -8.7,7.8 -0.4,0.4 -0.6,0.6 -0.9,1.1 -0.5,0.6 -1.1,1.2 -1.6,1.8 -0.1,0.1 -0.1,0.2 -0.2,0.3 -0.9,0.8 -1.9,1.1 -3.5,0.5 -2.5,-0.9 -5.2,-7.5 -6.3,-10.7 l -6.4,-18.6 -4.2,-12.2 -2.1,-6.1 c -0.2,-0.5 -0.3,-1 -0.6,-1.7 -0.3,-0.6 -0.6,-1.2 -1,-1.8 -0.8,-1.1 -1.9,-2.1 -3.1,-2.7 -0.3,-0.2 -0.6,-0.3 -1,-0.4 l -0.5,-0.2 -0.4,-0.1 c -0.6,-0.2 -1.1,-0.3 -1.7,-0.5 -1.1,-0.3 -2.3,-0.5 -3.5,-0.6 -0.6,-0.1 -1.2,-0.1 -1.8,-0.1 -0.7,0 -1.4,0.1 -2.1,0.2 -1.3,0.3 -2.5,0.8 -3.6,1.4 -1.1,0.6 -2.1,1.3 -3,2 -0.2,0.2 -0.5,0.4 -0.7,0.6 -0.2,0.2 -0.4,0.4 -0.7,0.6 -0.5,0.5 -1,1 -1.4,1.6 -0.8,1.2 -1.3,2.5 -1.5,3.9 0,0.3 -0.1,0.7 -0.1,1 v 0.8 l -0.1,1.6 c -0.5,17.5 1.8,34.9 5.6,51.8 2,8.5 4.3,16.8 7.1,25.1 1.4,4.1 2.8,8.2 4.4,12.3 0.8,2 1.6,4 2.4,6.1 l 1.3,3 0.7,1.5 c 0.3,0.6 0.6,1.1 0.9,1.7 0.3,0.5 0.7,1.1 1.1,1.6 0.2,0.2 0.4,0.5 0.6,0.7 l 0.6,0.6 c 0.7,0.8 1.5,1.6 2.2,2.4 0.8,0.8 1.5,1.6 2.3,2.4 l 2.3,2.3 c 3.1,3 6.4,5.9 9.7,8.8 6.7,5.6 13.6,10.8 20.8,15.8 7.1,4.9 14.5,9.6 21.9,14 3.7,2.2 7.5,4.4 11.3,6.5 1.9,1 3.8,2.1 5.7,3.1 l 1.4,0.8 0.4,0.2 0.2,0.1 0.2,0.1 c 0.3,0.2 0.7,0.3 1,0.4 1.3,0.5 2.8,0.6 4.2,0.5 0.7,-0.1 1.4,-0.2 2.1,-0.5 0.4,-0.1 0.6,-0.2 0.9,-0.3 0.3,-0.1 0.5,-0.2 0.8,-0.4 1.1,-0.5 2.1,-1 3.1,-1.7 1,-0.6 2,-1.3 2.9,-2.1 0.9,-0.8 1.8,-1.6 2.6,-2.6 1.6,-2 2.6,-4.3 3.2,-6.7 0.1,-0.6 0.3,-1.2 0.4,-1.8 l 0.1,-0.4 c 0,-0.1 0,-0.3 0.1,-0.5 0,-0.4 0,-0.7 0,-1.1 0,-1.4 -0.4,-2.8 -1.1,-4.1 -0.3,-0.6 -0.7,-1.2 -1.2,-1.8 -0.2,-0.3 -0.5,-0.5 -0.7,-0.7 l -0.6,-0.6 -2.2,-2.3 -4.5,-4.6 -9,-9.3 -18,-18.6 -1.8,-1.8 c -2.3,-2.4 -4.4,-5.6 -3.7,-8.5 0.6,-2.6 7.8,-5.6 7.8,-5.6 v 0 c 6.7,-2.5 13.2,-5.5 19.6,-8.4 3.5,-1.6 7,-3.2 10.5,-4.4 3.5,-1.2 7.1,-2 10.6,-1.8 3.5,0.1 6.7,1.4 9.5,3.6 1.4,1.1 29.6,20.7 40,23.8 38.8,11.5 64.7,0.4 70.7,-2.6 0.4,-0.2 0.3,-0.8 -0.2,-0.9 l -8.9,-0.9 c 5.8,2.3 -35.6,11.3 -59.7,-0.1 -14.3,-4.9 -43.1,-24.8 -45.1,-25.6 -2,-0.8 -4.2,-1.2 -6.3,-1.4 -4.3,-0.2 -8.3,0.7 -12.1,2 -3.8,1.3 -7.4,3 -10.9,4.5 -7,3.2 -14,6.4 -21.2,8.9 -7.2,2.5 -14.5,4.5 -22,5.2 -0.9,0.1 -1.8,0.8 -2,1.8 -0.2,1.2 0.5,2.4 1.7,2.6 v 0 c 2,0.4 4,1 5.9,1.6 1.9,0.7 3.8,1.5 5.2,2.5 0.2,0.1 0.3,0.3 0.5,0.4 0.2,0.1 0.3,0.3 0.5,0.5 0.3,0.3 0.7,0.7 1.1,1.1 l 2.3,2.3 4.5,4.6 17.9,18.6 8.9,9.3 4.5,4.7 2.2,2.3 c 0.4,0.4 0.8,0.8 1,1.1 0.2,0.3 0.4,0.6 0.6,0.9 0.3,0.6 0.5,1.4 0.5,2.1 0,0.6 -0.2,1.7 -0.4,2.6 -0.5,1.8 -1.2,3.5 -2.3,4.9 -0.5,0.7 -1.2,1.4 -1.9,2 -0.7,0.6 -1.5,1.2 -2.3,1.7 -0.8,0.5 -1.7,1 -2.6,1.4 l -0.7,0.3 c -0.2,0.1 -0.5,0.2 -0.6,0.2 -0.3,0.1 -0.7,0.2 -1.1,0.2 -0.7,0.1 -1.5,0 -2.1,-0.2 -0.2,-0.1 -0.3,-0.1 -0.5,-0.2 l -0.1,-0.1 -0.2,-0.1 -0.4,-0.2 -1.4,-0.7 c -1.9,-1 -3.8,-2 -5.6,-3.1 -3.7,-2.1 -7.5,-4.2 -11.1,-6.4 -7.4,-4.4 -14.6,-9 -21.6,-13.9 -7,-4.9 -13.9,-10 -20.4,-15.5 -0.8,-0.7 -1.6,-1.4 -2.4,-2.1 -0.9,-0.8 -2,-1.8 -3.2,-2.9 -1.3,-1.2 -2.6,-2.4 -3.8,-3.6 l -0.9,-0.9 c -6.8,-7.2 -10.1,-14.1 -10.6,-15.1 -0.6,-1.5 -1.2,-3 -1.8,-4.5 -1.5,-4 -3,-8 -4.3,-12 -2.7,-8.1 -5.1,-16.3 -7,-24.6 -1.9,-8.3 -3.5,-16.7 -4.5,-25.2 -0.5,-4.2 -0.9,-8.5 -1.1,-12.7 -0.2,-4.2 -0.3,-8.5 -0.2,-12.7 v -1.6 -0.8 c 0,-0.3 0,-0.4 0,-0.6 0.1,-0.7 0.4,-1.5 0.8,-2.1 0.2,-0.3 0.4,-0.6 0.7,-0.9 0.1,-0.1 0.3,-0.3 0.5,-0.5 l 0.6,-0.5 c 0.8,-0.6 1.6,-1.2 2.4,-1.6 0.8,-0.4 1.6,-0.8 2.4,-0.9 0.4,-0.1 0.8,-0.1 1.1,-0.1 0.5,0 0.9,0 1.4,0.1 1,0.1 1.9,0.3 2.9,0.5 0.5,0.1 1,0.2 1.4,0.4 l 0.4,0.1 0.3,0.1 c 0.2,0.1 0.3,0.1 0.5,0.2 0.7,0.3 1.3,0.9 1.7,1.5 0.5,0.6 0.7,1.2 1.1,2.4 l 2.2,6.1 4.3,12.2 4.5,12.7 c 0,0 6,17 3.4,42.9 -0.3,2.6 -0.3,5.3 0,8 0.1,1.3 0.4,2.7 0.8,4 0.2,0.7 0.4,1.4 0.7,2 0.3,0.7 0.6,1.4 1.2,2.1 2,2.6 4.9,3.8 7.6,4.3 2.7,0.4 5.4,0.2 8,-0.7 0.2,-0.1 0.3,-0.2 0.3,-0.4 0.1,-0.3 -0.1,-0.5 -0.4,-0.6 v 0 c -2.4,-0.5 -4.8,-1.1 -6.9,-1.9 -1,-0.4 -2,-0.9 -2.8,-1.5 -0.4,-0.3 -0.8,-0.6 -1.2,-0.9 -0.2,-0.2 -0.3,-0.3 -0.5,-0.5 -0.1,-0.1 -0.1,-0.2 -0.2,-0.3 V 272 l -0.1,-0.1 c -0.4,-0.6 -0.8,-1.6 -1.1,-2.7 -0.3,-1.1 -0.5,-2.2 -0.6,-3.3 -0.2,-2.3 -0.2,-4.7 0.1,-7 0.5,-4.7 1.9,-9.3 3.8,-13.6 2,-4.3 4.6,-8.4 7.7,-12 3.1,-3.7 6.6,-6.9 10.5,-9.8 0.5,-0.4 1,-0.7 1.5,-1.1 l 1.5,-1.1 3,-2.1 c 2,-1.4 4.1,-2.8 6.1,-4.2 4.1,-2.8 8.3,-5.5 12.5,-8.1 l 6.4,-4 c 2.1,-1.4 4.3,-2.7 6.4,-4.4 2.1,-1.7 4.2,-3.8 5.6,-6.4 0.7,-1.4 1.2,-2.7 1.6,-4.1 0.4,-1.3 0.6,-2.6 0.8,-4 0.8,-5.2 0.8,-10.4 0.7,-15.5 -0.1,-2.6 -0.3,-5.1 -0.6,-7.6 -0.1,-1.3 -0.3,-2.5 -0.4,-3.8 l -0.2,-1.8 -0.2,-1.8 c -0.4,-4.8 -0.6,-9.8 -0.5,-14.7 0.1,-9.8 0.9,-19.7 2.8,-29.3 0.9,-4.8 2.2,-9.5 3.8,-14.1 0.3,-0.7 0.5,-1.4 0.8,-2.1 0.2,-0.4 0.9,-1.7 2.1,-1.5 1.5,0.3 2,2.8 2,2.8 v 0 c 1.1,5.1 2.2,10.2 3.4,15.3 1.2,4.7 2.3,9.4 4,14.1 0.4,1.2 0.9,2.4 1.4,3.5 0.5,1.1 1.1,2.2 1.7,3.3 1.2,2.2 2.5,4.3 3.7,6.3 1.3,2 2.5,4 3.4,6 1,2 1.7,4.2 2.2,6.4 0.2,0.4 0.2,0.9 0.3,1.3 0.1,0.6 0.3,1.5 0.4,2.1 l 0.2,1.7 c 0,0.5 0.1,1.1 0.1,1.6 0,1.1 -0.1,2.1 -0.3,3.2 -0.2,1.1 -0.5,2.1 -0.8,3.2 -1.4,4.2 -3.9,8.2 -6.8,11.8 -2.9,3.6 -6.2,7 -9.8,9.9 v 0 c -0.6,0.5 -0.8,1.3 -0.6,2 0.3,0.9 1.4,1.4 2.3,1 8.9,-3.3 18,-6.2 27.1,-8.8 1,-0.3 2.1,-0.6 3.1,-0.8 -2.9,2.7 -5.8,5.5 -8.7,8.2 l -2.5,2.4 c -0.8,0.8 -1.6,1.5 -2.4,2.2 -1.7,1.5 -3.4,2.9 -5.1,4.2 -3.5,2.7 -7.2,5.2 -11.1,7.4 -1.9,1.1 -3.9,2.1 -5.8,3 -2,0.9 -4.1,1.7 -6.2,2.5 -4.2,1.5 -8.6,2.9 -12.8,4.8 -4.3,1.9 -8.4,4.2 -12.2,6.7 l -1.5,1 -1.4,1 c -0.9,0.7 -1.9,1.3 -2.8,2 -1.8,1.4 -3.7,2.8 -5.5,4.2 -3.6,3 -6.9,6.2 -10.1,9.5 -3.2,3.4 -6.1,6.9 -8.9,10.6 -1.4,1.9 -2.7,3.8 -3.9,5.8 -1.2,2 -2.3,4.1 -3.2,6.4 -0.4,1.2 -0.8,2.4 -1,3.7 -0.1,1.4 0,2.7 0.4,4 0.4,1.3 1,2.4 1.9,3.4 0.8,1 1.8,1.8 2.9,2.3 h 0.1 c 0.1,0 0.2,-0.1 0.1,-0.2 v 0 c -0.8,-2.3 -1.4,-4.3 -1.6,-6.2 -0.1,-1 -0.1,-1.9 0,-2.8 0.1,-0.9 0.4,-1.8 0.8,-2.8 0.8,-1.9 1.8,-3.8 2.9,-5.7 1.1,-1.9 2.4,-3.7 3.7,-5.4 5.4,-7 11.6,-13.6 18.4,-19.2 1.7,-1.4 3.5,-2.7 5.3,-4.1 0.9,-0.7 1.8,-1.3 2.7,-1.9 l 1.4,-1 1.4,-0.9 c 3.7,-2.4 7.6,-4.6 11.6,-6.4 2,-0.9 4.1,-1.7 6.2,-2.5 2.1,-0.8 4.3,-1.5 6.4,-2.3 2.2,-0.8 4.3,-1.7 6.4,-2.7 2.1,-1 4.2,-2.1 6.2,-3.3 4,-2.3 7.8,-5 11.5,-7.8 1.8,-1.4 3.6,-2.9 5.3,-4.4 0.9,-0.8 1.7,-1.6 2.5,-2.4 l 2.4,-2.4 c 6.5,-6.3 13,-12.5 19.9,-18.4 1.7,-1.5 3.4,-2.9 5.2,-4.3 0.9,-0.7 1.8,-1.3 2.7,-2 0.9,-0.6 1.8,-1.3 2.7,-1.8 3.7,-2.3 7.7,-4.3 11.8,-6 4.1,-1.7 8.3,-3.1 12.6,-4.2 2,-0.5 4,-0.9 6,-1.3 -0.1,0.1 -0.2,0.1 -0.3,0.2 -2.1,1.4 -4.2,2.9 -6.2,4.5 -4.1,3.1 -7.9,6.4 -11.6,10 -3.7,3.6 -7.1,7.4 -10.3,11.5 -0.8,1 -1.6,2.1 -2.3,3.1 -0.7,1.1 -1.5,2.1 -2.2,3.2 -1.5,2.2 -2.8,4.4 -4,6.7 v 0 l -0.2,0.4 c -0.3,0.7 -0.4,1.4 -0.1,2.2 0.5,1.8 2.4,2.9 4.2,2.4 5.3,-1.4 10.7,-2.6 16.1,-3.7 2.7,-0.5 5.4,-1 8.1,-1.3 2.7,-0.3 5.4,-0.4 8.1,-0.6 5.5,-0.2 11,-0.2 16.6,-0.2 5.6,0 11.1,0 16.7,-0.2 2.8,-0.1 5.6,-0.3 8.4,-0.6 2.8,-0.3 5.6,-0.8 8.3,-1.3 5.5,-1.1 11,-2.4 16.3,-3.9 5.4,-1.6 10.7,-3.3 15.9,-5.4 l 2,-0.8 1.9,-0.8 c 1.3,-0.5 2.6,-1.1 3.8,-1.7 1.3,-0.6 2.5,-1.3 3.8,-1.9 l 3.7,-2 c 4.9,-2.7 9.8,-5.4 14.4,-8.7 4.7,-3.2 8.9,-7.1 12.7,-11.4 0.5,-0.5 0.9,-1.1 1.4,-1.6 0.2,-0.3 0.5,-0.5 0.7,-0.8 0.2,-0.3 0.5,-0.6 0.7,-0.9 0.9,-1.2 1.6,-2.6 2.2,-4 1.2,-2.7 1.8,-5.6 2.3,-8.4 0.5,-2.8 0.7,-5.6 1,-8.4 0.1,-1.4 0.2,-2.7 0.4,-4.1 0.2,-1.4 0.4,-2.7 0.6,-4.1 0.9,-5.4 2,-10.8 3.3,-16.1 0.7,-2.6 1.5,-5.3 2.4,-7.8 1,-2.5 2.2,-5 3.5,-7.3 2.7,-4.9 5.9,-9.6 9.4,-14.1 0.5,-0.6 1.1,-1.1 1.3,-0.9 0.5,0.4 0.2,1.6 0,2.2 0,0.1 -0.1,0.2 -0.1,0.3 0,0.1 0,0.1 0,0.1 v 0 c -1.1,2.9 -2,5.8 -2.8,8.8 -0.3,1.1 -0.5,2.2 -0.7,3.3 -0.2,1.1 -0.3,2.2 -0.5,3.2 -0.3,2.1 -0.5,4.3 -0.8,6.4 -0.5,4.3 -1,8.5 -1.6,12.7 -0.6,4.2 -1.4,8.4 -2.6,12.3 -0.3,1 -0.6,2 -1,2.9 -0.2,0.5 -0.4,0.9 -0.6,1.4 l -0.7,1.4 c -0.9,1.9 -1.8,3.9 -2.7,5.8 -2.6,5.3 -5.3,10.5 -8.4,15.5 -0.2,0.2 -0.3,0.4 -0.5,0.6 v 0 c 0,0 -0.1,0.1 -0.1,0.2 -0.3,0.7 -0.7,1.4 -1,2 -3.4,4.7 -6.6,9.3 -10.8,13 -0.4,0.3 -0.8,0.7 -1.2,1 -0.4,0.3 -0.8,0.6 -1.2,1 -0.8,0.6 -1.7,1.3 -2.5,1.9 -1.7,1.3 -3.4,2.5 -5.2,3.7 -7,4.8 -14.3,9.2 -21.8,13 -7.6,3.8 -15.4,7.1 -23.4,9.8 -8,2.7 -16.2,4.7 -24.6,6.1 -4.2,0.7 -8.3,1.1 -12.6,1.6 l -12.8,1.4 c -8.5,1 -17.1,2 -25.6,3.1 -17,2.3 -34.1,4.8 -50.9,8.5 -8.4,1.9 -16.8,4.1 -25,7 l -3.1,1.1 -3,1.2 -3,1.4 -2.9,1.4 c -3.9,1.8 -7.7,3.8 -11.6,5.8 -3.8,2 -7.6,4.1 -11.3,6.3 -3.7,2.2 -7.4,4.6 -10.8,7.3 -3.4,2.7 -6.7,5.7 -9.4,9.3 -1.3,1.8 -2.6,3.7 -3.4,5.9 -0.8,2.2 -1.1,4.5 -0.5,6.8 0,0.1 0.1,0.1 0.1,0.2 0.1,0.1 0.3,0 0.4,-0.1 1,-2 1.8,-3.8 2.8,-5.6 0.9,-1.8 1.9,-3.5 3.2,-5.1 2.5,-3.2 5.6,-6 8.9,-8.6 3.3,-2.5 6.9,-4.8 10.6,-6.9 3.7,-2.1 7.4,-4.1 11.2,-6 3.8,-1.9 7.7,-3.7 11.5,-5.5 l 2.9,-1.4 2.9,-1.3 2.9,-1.2 3,-1.1 c 7.7,-2.7 15.6,-4.7 23.6,-6.4 l 18.7,-3.5 v 0 c 11.2,-2 22.4,-3.6 33.7,-5.1 8.5,-1.1 17,-2.1 25.5,-3.1 l 9.9,-1.1 c 0.2,0 5.1,-0.2 5.1,0.7 -0.1,1.8 -58.4,26 -76.1,33 -2.4,0.9 -2.7,4.7 -0.2,5.3 9.8,2.4 18.3,1.4 25.7,4.3 6.6,2.5 7.1,7.5 16.6,14.2 17.2,12.1 33.2,17.4 40.4,19 4.1,0.9 5.5,0.2 5.9,0.6 3,-0.8 -36.6,-16 -44.1,-22.3 -10.3,-8.7 -6.7,-7.5 -12.5,-11.9 -1.5,-1.1 -4.2,-3.2 -8,-4.1 l -8.4,-1.2 c -2.3,-0.3 -2.7,-3.5 -0.5,-4.4 L 412,204.3 c 2.1,-1 4.1,-2.1 6.1,-3.2 0.5,-0.3 1,-0.5 1.5,-0.8 0.1,0.1 0.3,0.2 0.4,0.2 0.3,0.2 0.6,0.3 1,0.5 0.6,0.3 1.3,0.5 1.9,0.7 0.6,0.2 1.3,0.4 1.9,0.6 0.6,0.2 1.3,0.3 1.9,0.4 2.6,0.5 5.2,0.6 7.8,0.5 2.6,0 5.1,-0.4 7.6,-0.8 1.2,-0.2 2.5,-0.5 3.7,-0.8 l 3.6,-1 v 0 c 0.5,-0.1 0.9,-0.6 0.9,-1.1 0.1,-0.7 -0.5,-1.3 -1.1,-1.4 v 0 c -1.6,-0.2 -3.2,-0.5 -4.8,-0.8 -1.6,-0.3 -3.2,-0.7 -4.6,-1.2 -0.7,-0.2 -1.5,-0.5 -2.1,-0.9 -0.6,-0.3 -1.2,-0.8 -1.4,-1.1 -0.1,-0.2 -0.1,-0.2 -0.1,-0.3 0,0 0,0 0,-0.1 4,-1.7 7.8,-3.5 11.7,-5.5 7.7,-4 15.1,-8.5 22.2,-13.5 1.8,-1.2 3.5,-2.5 5.2,-3.8 0.9,-0.7 1.7,-1.3 2.6,-2 0.4,-0.3 0.9,-0.7 1.3,-1 0.4,-0.4 0.9,-0.7 1.3,-1.1 3.3,-3 6.1,-6.5 8.7,-10 1.3,-1.8 2.5,-3.7 3.7,-5.6 0.1,-0.1 0.2,-0.2 0.3,-0.4 v 0 c 0.6,-0.9 1.6,-2 2.6,-2.9 0.5,-0.5 1,-1 1.6,-1.4 0.5,-0.5 1.1,-0.9 1.6,-1.4 2.2,-1.9 4.5,-3.6 6.8,-5.4 4.7,-3.5 9.4,-6.9 14.3,-10.3 4.8,-3.3 9.8,-6.6 14.3,-10.5 2.3,-1.9 4.5,-4 6.5,-6.2 1,-1.1 2,-2.3 2.9,-3.5 0.5,-0.6 0.9,-1.2 1.3,-1.9 0.2,-0.3 0.4,-0.7 0.6,-1 0.2,-0.4 0.4,-0.7 0.6,-1.1 0,-0.8 0,-1.3 -0.3,-1.7 z m -129.4,62.8 c 1.8,-1.5 3.8,-2.8 5.8,-4.1 1,-0.6 2,-1.2 3.1,-1.8 0.8,-0.4 1.6,-0.8 2.4,-1.2 0.1,0 0.8,-0.3 0.9,-0.1 0.2,0.2 -0.1,0.6 -0.2,0.8 -0.3,0.4 -0.6,0.8 -1,1.2 -0.5,0.6 -1,1.3 -1.4,2 -0.4,0.7 -0.9,1.4 -1.2,2.4 -0.1,0.4 -0.2,0.8 -0.2,1.4 -3.4,0.5 -6.8,0.8 -10.2,1.1 -0.1,0 -0.2,0 -0.2,0 0.8,-0.5 1.5,-1.1 2.2,-1.7 z m 66.7,-21.7 c -0.2,0.3 -0.4,0.5 -0.6,0.7 -0.2,0.2 -0.4,0.5 -0.7,0.8 -0.4,0.5 -0.9,1 -1.3,1.5 -3.6,4.1 -7.6,7.7 -12.1,10.8 -4.5,3.1 -9.3,5.8 -14.1,8.4 l -3.7,2 c -1.2,0.6 -2.4,1.3 -3.7,1.8 -1.2,0.6 -2.5,1.2 -3.7,1.7 l -1.9,0.8 -1.9,0.8 c -5.1,2 -10.3,3.8 -15.6,5.3 -5.3,1.5 -10.6,2.8 -16,3.8 -2.7,0.5 -5.4,0.9 -8.1,1.2 -2.7,0.3 -5.4,0.4 -8.2,0.5 -5.5,0.2 -11,0.1 -16.6,0 -5.5,-0.1 -11.1,-0.2 -16.7,-0.3 -2.8,0 -5.6,0 -8.5,0.2 -2.8,0.2 -5.6,0.5 -8.4,0.8 -3.4,0.4 -6.8,0.7 -10.2,1.1 1.2,-2.4 2.6,-4.8 4.1,-7.1 1.8,-2.8 3.8,-5.5 5.9,-8 h 1.7 c 4.8,-0.1 9.5,-0.2 14.3,-0.3 9.5,-0.2 19.1,-0.3 28.6,-0.1 2.4,0.1 4.8,0.1 7.1,0.3 0.6,0 1.2,0.1 1.7,0.1 l 1.7,0.2 c 1.3,0.2 2.5,0.2 3.7,0.2 3.1,0.1 6.2,0 9.3,-0.2 0.4,0.1 0.8,0.1 1.2,-0.1 1.3,-0.1 2.7,-0.2 4,-0.3 9.6,-0.9 19.1,-2.4 28.5,-4.9 2.3,-0.6 4.7,-1.4 7,-2.2 l 1.7,-0.7 1.7,-0.7 3.3,-1.5 c 4.3,-2 8.8,-3.9 13,-6.4 4.2,-2.4 8.2,-5.5 11.5,-9.1 1.2,-1.3 2.3,-2.6 3.3,-3.9 -0.1,1 -0.6,2 -1.3,2.8 z m -46.9,52.6 c 0.8,0.4 1.6,0.8 2.5,1 0,0 0.8,0.4 0.6,0.8 -0.2,0.3 -0.8,0.4 -1,0.5 -1.4,0.1 -2.7,0.2 -4.1,0.1 -2.4,0 -4.7,-0.3 -7,-0.8 -0.6,-0.1 -1.1,-0.3 -1.7,-0.5 -0.4,-0.1 -0.8,-0.3 -1.2,-0.4 3.1,-1.1 6.2,-2.2 9.2,-3.5 0,0.1 0.1,0.2 0.1,0.3 0.1,0.1 0.1,0.3 0.2,0.4 0.7,1.2 1.6,1.7 2.4,2.1 z m 97.1,-81.8 c -0.4,0.3 -0.7,0.6 -1.1,0.9 -4.5,3.7 -9.4,6.8 -14.3,10.1 -4.9,3.3 -9.8,6.6 -14.6,10.1 -1.7,1.2 -3.3,2.5 -5,3.7 1.1,-2.1 2.1,-4.3 3.1,-6.4 0.7,-1.5 1.4,-3 2.1,-4.5 h 0.2 c 0.2,0 0.3,0 0.5,0 h 0.4 c 0.3,0 0.6,-0.1 0.9,-0.1 0.5,-0.1 1.1,-0.2 1.6,-0.4 l 1.5,-0.5 c 1,-0.4 2,-0.8 2.9,-1.2 0.9,-0.5 1.9,-0.9 2.8,-1.4 l 2.7,-1.5 c 0.9,-0.5 1.8,-1 2.7,-1.6 1.8,-1 3.5,-2.1 5.3,-3.2 1.8,-1.1 3.4,-2.3 5.2,-3.4 1,-0.6 1.9,-1.3 2.9,-1.9 v 0 0 c 0.2,-0.1 0.4,-0.3 0.6,-0.4 0.3,-0.2 0.5,-0.3 0.6,-0.1 0.3,0.2 -0.3,1.2 -1,1.8 z"
   id="path10"
   inkscape:connector-curvature="0"
   style="fill:#ffffff" />
			<path
   class="st1"
   d="m 265.5,242.1 -6.6,1.8 c -4.4,1.3 -8.9,2.7 -13.2,4.4 -4.3,1.7 -8.5,3.8 -12.5,6.3 l -1.5,0.9 c -0.5,0.3 -1,0.7 -1.4,1 -0.5,0.3 -1,0.7 -1.4,1 -0.5,0.4 -1,0.8 -1.4,1.2 -1.8,1.7 -3.2,3.8 -3.4,6.4 0,0.1 0,0.3 0.2,0.4 0.2,0.1 0.4,0.1 0.6,-0.1 v 0 c 1.4,-1.8 2.7,-3.4 4.3,-4.8 0.4,-0.3 0.8,-0.7 1.2,-1 0.4,-0.3 0.9,-0.6 1.4,-0.9 0.5,-0.3 0.9,-0.6 1.4,-0.9 l 1.4,-0.9 c 3.9,-2.3 8,-4.1 12.2,-5.7 2.1,-0.8 4.3,-1.5 6.4,-2.1 2.2,-0.7 4.4,-1.2 6.6,-1.8 l 6.7,-1.7 c 2.3,-0.6 4.4,-1.1 6.7,-1.6 7.6,-1.8 110.2,-33.6 117.8,-35.4 v -4.2 c -7.9,1.9 -110.8,33.9 -118.7,36 -2.3,0.5 -4.6,1.1 -6.8,1.7 z"
   id="path12"
   inkscape:connector-curvature="0"
   style="fill:#ffffff" />
		</g>
	</g>
</g>
</svg>
